<?xml version="1.0" encoding="utf-8"?>
<!-- Generator: Adobe Illustrator 24.1.2, SVG Export Plug-In . SVG Version: 6.00 Build 0)  -->
<svg version="1.1" id="Layer_1" xmlns="http://www.w3.org/2000/svg" xmlns:xlink="http://www.w3.org/1999/xlink" x="0px" y="0px"
	 viewBox="0 0 250 250" style="enable-background:new 0 0 250 250;" xml:space="preserve">
<rect style="fill:#161616;" width="250" height="250"/>
<g id="Booking-2">
	<path style="fill:#F2C611;" d="M156,87c0-2.9-2.3-5.2-5.2-5.2h-5.2v3.4h-3.4v-3.4h-10.3v3.4h-3.4v-3.4h-10.3v3.4h-3.4v-3.4h-10.3
		v3.4h-3.4v-3.4H90.5v3.4h-3.4v-3.4h-5.2c-2.9,0-5.2,2.3-5.2,5.2v5.2H156V87z M144,112.9c4.1,0,8.2,0.8,12.1,2.3V95.7H76.7V156
		c0,2.9,2.3,5.2,5.2,5.2h33.2c-8.6-15.9-2.6-35.8,13.3-44.4C133.2,114.2,138.5,112.9,144,112.9z M130.2,171.5c8.6,4.6,19,4.6,27.6,0
		v-36.2h-27.6V171.5z M133.6,138.8h20.7v3.4h-20.7V138.8z M133.6,145.7h20.7v3.4h-20.7V145.7z M133.6,152.6h20.7v3.4h-20.7V152.6z
		 M133.6,159.5h20.7v3.4h-20.7V159.5z M133.6,166.4h20.7v3.4h-20.7V166.4z M137.1,128.4h13.8v3.4h-13.8V128.4z M144,116.4
		c-16.2,0-29.3,13.1-29.3,29.2c0,9.4,4.5,18.2,12.1,23.7v-35.7c0-0.9,0.8-1.7,1.7-1.7h5.2v-5.2c0-0.9,0.8-1.7,1.7-1.7h6.9v-5.2h3.4
		v5.2h6.9c0.9,0,1.7,0.8,1.7,1.7v5.2h5.2c0.9,0,1.7,0.8,1.7,1.7v35.7c13.1-9.5,16-27.8,6.5-40.9C162.2,120.8,153.3,116.4,144,116.4z
		 M114.7,75h3.4v6.9h-3.4V75z M100.9,75h3.4v6.9h-3.4V75z M87.1,75h3.4v6.9h-3.4V75z M128.4,75h3.4v6.9h-3.4V75z M142.2,75h3.4v6.9
		h-3.4V75z"/>
	<g style="opacity:7.000000e-02;">
		<path style="fill:#F2C611;" d="M145.7,75v6.9h-3.4V75H145.7 M131.9,75v6.9h-3.4V75H131.9 M118.1,75v6.9h-3.4V75H118.1 M104.3,75
			v6.9h-3.4V75H104.3 M90.5,75v6.9h-3.4V75H90.5 M150.9,81.9c2.9,0,5.2,2.3,5.2,5.2v5.2H76.7V87c0-2.9,2.3-5.2,5.2-5.2h5.2v3.4h3.4
			v-3.4h10.3v3.4h3.4v-3.4h10.3v3.4h3.4v-3.4h10.3v3.4h3.4v-3.4h10.3v3.4h3.4v-3.4H150.9 M156,95.7v19.6c-3.8-1.5-7.9-2.3-12.1-2.3
			c-5.4,0-10.8,1.3-15.5,3.9c-15.9,8.6-21.9,28.4-13.3,44.4H81.9c-2.9,0-5.2-2.3-5.2-5.2V95.7H156 M143.9,116.4
			C143.9,116.4,144,116.4,143.9,116.4c9.4,0,18.3,4.5,23.8,12.1c9.5,13.1,6.6,31.4-6.5,40.9v-35.7c0-0.9-0.8-1.7-1.7-1.7h-5.2v-5.2
			c0-0.9-0.8-1.7-1.7-1.7h-6.9v-5.2h-3.4v5.2h-6.9c-0.9,0-1.7,0.8-1.7,1.7v5.2h-5.2c-0.9,0-1.7,0.8-1.7,1.7v35.7
			c-7.6-5.5-12.1-14.4-12.1-23.7C114.7,129.5,127.8,116.4,143.9,116.4 M150.9,128.4v3.4h-13.8v-3.4H150.9 M157.8,135.3v36.2
			c-4.3,2.3-9.1,3.5-13.8,3.5c-4.7,0-9.5-1.2-13.8-3.5v-36.2H157.8 M133.6,142.2h20.7v-3.4h-20.7V142.2 M133.6,149.1h20.7v-3.4
			h-20.7V149.1 M133.6,156h20.7v-3.4h-20.7V156 M133.6,162.9h20.7v-3.4h-20.7V162.9 M133.6,169.8h20.7v-3.4h-20.7V169.8 M145.7,73
			h-3.4c-1.1,0-2,0.9-2,2v4.9h-6.3V75c0-1.1-0.9-2-2-2h-3.4c-1.1,0-2,0.9-2,2v4.9h-6.3V75c0-1.1-0.9-2-2-2h-3.4c-1.1,0-2,0.9-2,2
			v4.9h-6.3V75c0-1.1-0.9-2-2-2h-3.4c-1.1,0-2,0.9-2,2v4.9h-6.3V75c0-1.1-0.9-2-2-2h-3.4c-1.1,0-2,0.9-2,2v4.9h-3.2
			c-4,0-7.2,3.2-7.2,7.2v5.2c0,0.7,0.4,1.4,1,1.7c-0.6,0.3-1,1-1,1.7V156c0,4,3.2,7.2,7.2,7.2h33.2c0.7,0,1.4-0.4,1.7-1
			c0.1-0.2,0.2-0.4,0.2-0.6c2.1,3.6,5,6.8,8.5,9.3c0.3,0.3,0.8,0.4,1.2,0.4c0.3,0,0.6-0.1,0.9-0.2c0.2-0.1,0.4-0.2,0.5-0.4v0.8
			c0,0.7,0.4,1.4,1.1,1.8c4.5,2.4,9.6,3.7,14.7,3.7c5.1,0,10.2-1.3,14.7-3.7c0.7-0.3,1.1-1,1.1-1.8v-0.8c0.2,0.2,0.3,0.3,0.5,0.4
			c0.3,0.1,0.6,0.2,0.9,0.2c0.4,0,0.8-0.1,1.2-0.4c13.9-10.1,17-29.7,6.9-43.7c-3.3-4.5-7.6-7.9-12.5-10.2c0.1-0.1,0.3-0.1,0.4-0.2
			c0.5-0.4,0.9-1,0.9-1.7V95.7c0-0.7-0.4-1.4-1-1.7c0.6-0.3,1-1,1-1.7V87c0-4-3.2-7.2-7.2-7.2h-3.2V75C147.7,73.9,146.8,73,145.7,73
			L145.7,73z M143.6,126.4c0.1-0.1,0.3-0.3,0.3-0.4c0.1,0.2,0.2,0.3,0.3,0.4H143.6L143.6,126.4z M152.2,127L152.2,127L152.2,127
			C152.3,127,152.3,127,152.2,127L152.2,127z M135.6,127L135.6,127C135.7,127,135.6,127,135.6,127L135.6,127L135.6,127z M135,133.3
			c0.1-0.1,0.3-0.3,0.3-0.4c0.1,0.2,0.2,0.3,0.3,0.4H135L135,133.3z M152.2,133.3c0.1-0.1,0.3-0.3,0.3-0.4c0.1,0.2,0.2,0.3,0.3,0.4
			H152.2L152.2,133.3z M159.1,133.9L159.1,133.9L159.1,133.9C159.2,133.9,159.2,133.9,159.1,133.9L159.1,133.9z M128.7,133.9
			L128.7,133.9C128.8,133.9,128.7,133.9,128.7,133.9L128.7,133.9L128.7,133.9z"/>
	</g>
	<g style="opacity:7.000000e-02;">
		<path style="fill:#F2C611;" d="M145.7,75v6.9h-3.4V75H145.7 M131.9,75v6.9h-3.4V75H131.9 M118.1,75v6.9h-3.4V75H118.1 M104.3,75
			v6.9h-3.4V75H104.3 M90.5,75v6.9h-3.4V75H90.5 M150.9,81.9c2.9,0,5.2,2.3,5.2,5.2v5.2H76.7V87c0-2.9,2.3-5.2,5.2-5.2h5.2v3.4h3.4
			v-3.4h10.3v3.4h3.4v-3.4h10.3v3.4h3.4v-3.4h10.3v3.4h3.4v-3.4h10.3v3.4h3.4v-3.4H150.9 M156,95.7v19.6c-3.8-1.5-7.9-2.3-12.1-2.3
			c-5.4,0-10.8,1.3-15.5,3.9c-15.9,8.6-21.9,28.4-13.3,44.4H81.9c-2.9,0-5.2-2.3-5.2-5.2V95.7H156 M143.9,116.4
			C143.9,116.4,144,116.4,143.9,116.4c9.4,0,18.3,4.5,23.8,12.1c9.5,13.1,6.6,31.4-6.5,40.9v-35.7c0-0.9-0.8-1.7-1.7-1.7h-5.2v-5.2
			c0-0.9-0.8-1.7-1.7-1.7h-6.9v-5.2h-3.4v5.2h-6.9c-0.9,0-1.7,0.8-1.7,1.7v5.2h-5.2c-0.9,0-1.7,0.8-1.7,1.7v35.7
			c-7.6-5.5-12.1-14.4-12.1-23.7C114.7,129.5,127.8,116.4,143.9,116.4 M150.9,128.4v3.4h-13.8v-3.4H150.9 M157.8,135.3v36.2
			c-4.3,2.3-9.1,3.5-13.8,3.5c-4.7,0-9.5-1.2-13.8-3.5v-36.2H157.8 M133.6,142.2h20.7v-3.4h-20.7V142.2 M133.6,149.1h20.7v-3.4
			h-20.7V149.1 M133.6,156h20.7v-3.4h-20.7V156 M133.6,162.9h20.7v-3.4h-20.7V162.9 M133.6,169.8h20.7v-3.4h-20.7V169.8 M145.7,71
			h-3.4c-2.2,0-4,1.8-4,4v2.9h-2.3V75c0-2.2-1.8-4-4-4h-3.4c-2.2,0-4,1.8-4,4v2.9h-2.3V75c0-2.2-1.8-4-4-4h-3.4c-2.2,0-4,1.8-4,4
			v2.9h-2.3V75c0-2.2-1.8-4-4-4h-3.4c-2.2,0-4,1.8-4,4v2.9h-2.3V75c0-2.2-1.8-4-4-4h-3.4c-2.2,0-4,1.8-4,4v2.9h-1.2
			c-5.1,0-9.2,4.1-9.2,9.2v5.2c0,0.6,0.1,1.2,0.4,1.7c-0.2,0.5-0.4,1.1-0.4,1.7V156c0,5.1,4.1,9.2,9.2,9.2h33.2
			c0.6,0,1.1-0.1,1.6-0.3c2.1,2.9,4.6,5.6,7.6,7.7c0.7,0.5,1.4,0.7,2.2,0.8c0.4,0.7,0.9,1.3,1.7,1.7c4.8,2.6,10.2,3.9,15.7,3.9
			c5.5,0,10.9-1.4,15.7-3.9c0.7-0.4,1.3-1,1.7-1.7c0.8,0,1.6-0.3,2.2-0.8c14.8-10.8,18.1-31.6,7.4-46.5c-3-4.1-6.8-7.3-11.1-9.7
			c0.1-0.4,0.2-0.8,0.2-1.2V95.7c0-0.6-0.1-1.2-0.4-1.7c0.2-0.5,0.4-1.1,0.4-1.7V87c0-5.1-4.1-9.2-9.2-9.2h-1.2V75
			C149.7,72.8,147.9,71,145.7,71L145.7,71z"/>
	</g>
	<g style="opacity:7.000000e-02;">
		<path style="fill:#F2C611;" d="M145.7,75v6.9h-3.4V75H145.7 M131.9,75v6.9h-3.4V75H131.9 M118.1,75v6.9h-3.4V75H118.1 M104.3,75
			v6.9h-3.4V75H104.3 M90.5,75v6.9h-3.4V75H90.5 M150.9,81.9c2.9,0,5.2,2.3,5.2,5.2v5.2H76.7V87c0-2.9,2.3-5.2,5.2-5.2h5.2v3.4h3.4
			v-3.4h10.3v3.4h3.4v-3.4h10.3v3.4h3.4v-3.4h10.3v3.4h3.4v-3.4h10.3v3.4h3.4v-3.4H150.9 M156,95.7v19.6c-3.8-1.5-7.9-2.3-12.1-2.3
			c-5.4,0-10.8,1.3-15.5,3.9c-15.9,8.6-21.9,28.4-13.3,44.4H81.9c-2.9,0-5.2-2.3-5.2-5.2V95.7H156 M143.9,116.4
			C143.9,116.4,144,116.4,143.9,116.4c9.4,0,18.3,4.5,23.8,12.1c9.5,13.1,6.6,31.4-6.5,40.9v-35.7c0-0.9-0.8-1.7-1.7-1.7h-5.2v-5.2
			c0-0.9-0.8-1.7-1.7-1.7h-6.9v-5.2h-3.4v5.2h-6.9c-0.9,0-1.7,0.8-1.7,1.7v5.2h-5.2c-0.9,0-1.7,0.8-1.7,1.7v35.7
			c-7.6-5.5-12.1-14.4-12.1-23.7C114.7,129.5,127.8,116.4,143.9,116.4 M150.9,128.4v3.4h-13.8v-3.4H150.9 M157.8,135.3v36.2
			c-4.3,2.3-9.1,3.5-13.8,3.5c-4.7,0-9.5-1.2-13.8-3.5v-36.2H157.8 M133.6,142.2h20.7v-3.4h-20.7V142.2 M133.6,149.1h20.7v-3.4
			h-20.7V149.1 M133.6,156h20.7v-3.4h-20.7V156 M133.6,162.9h20.7v-3.4h-20.7V162.9 M133.6,169.8h20.7v-3.4h-20.7V169.8 M145.7,69
			h-3.4c-2.2,0-4.1,1.2-5.2,3c-1-1.8-3-3-5.2-3h-3.4c-2.2,0-4.1,1.2-5.2,3c-1-1.8-3-3-5.2-3h-3.4c-2.2,0-4.1,1.2-5.2,3
			c-1-1.8-3-3-5.2-3h-3.4c-2.2,0-4.1,1.2-5.2,3c-1-1.8-3-3-5.2-3h-3.4c-3.3,0-6,2.7-6,6v0.9c-5.8,0.4-10.3,5.3-10.3,11.1v5.2
			c0,0.6,0.1,1.2,0.3,1.7c-0.2,0.5-0.3,1.1-0.3,1.7V156c0,6.2,5,11.2,11.2,11.2h33.2c0.3,0,0.6,0,0.8-0.1c2,2.7,4.5,5,7.2,7.1
			c0.7,0.5,1.4,0.8,2.2,1c0.5,0.7,1.2,1.2,1.9,1.6c5.1,2.7,10.8,4.2,16.6,4.2c5.8,0,11.5-1.4,16.6-4.2c0.8-0.4,1.4-1,1.9-1.6
			c0.8-0.2,1.5-0.5,2.2-1c15.7-11.4,19.2-33.5,7.8-49.3c-2.8-3.9-6.4-7.2-10.5-9.6c0,0,0-0.1,0-0.1V95.7c0-0.6-0.1-1.2-0.3-1.7
			c0.2-0.5,0.3-1.1,0.3-1.7V87c0-5.9-4.6-10.7-10.3-11.1V75C151.7,71.7,149,69,145.7,69L145.7,69z"/>
	</g>
	<g style="opacity:7.000000e-02;">
		<path style="fill:#F2C611;" d="M145.7,75v6.9h-3.4V75H145.7 M131.9,75v6.9h-3.4V75H131.9 M118.1,75v6.9h-3.4V75H118.1 M104.3,75
			v6.9h-3.4V75H104.3 M90.5,75v6.9h-3.4V75H90.5 M150.9,81.9c2.9,0,5.2,2.3,5.2,5.2v5.2H76.7V87c0-2.9,2.3-5.2,5.2-5.2h5.2v3.4h3.4
			v-3.4h10.3v3.4h3.4v-3.4h10.3v3.4h3.4v-3.4h10.3v3.4h3.4v-3.4h10.3v3.4h3.4v-3.4H150.9 M156,95.7v19.6c-3.8-1.5-7.9-2.3-12.1-2.3
			c-5.4,0-10.8,1.3-15.5,3.9c-15.9,8.6-21.9,28.4-13.3,44.4H81.9c-2.9,0-5.2-2.3-5.2-5.2V95.7H156 M143.9,116.4
			C143.9,116.4,144,116.4,143.9,116.4c9.4,0,18.3,4.5,23.8,12.1c9.5,13.1,6.6,31.4-6.5,40.9v-35.7c0-0.9-0.8-1.7-1.7-1.7h-5.2v-5.2
			c0-0.9-0.8-1.7-1.7-1.7h-6.9v-5.2h-3.4v5.2h-6.9c-0.9,0-1.7,0.8-1.7,1.7v5.2h-5.2c-0.9,0-1.7,0.8-1.7,1.7v35.7
			c-7.6-5.5-12.1-14.4-12.1-23.7C114.7,129.5,127.8,116.4,143.9,116.4 M150.9,128.4v3.4h-13.8v-3.4H150.9 M157.8,135.3v36.2
			c-4.3,2.3-9.1,3.5-13.8,3.5c-4.7,0-9.5-1.2-13.8-3.5v-36.2H157.8 M133.6,142.2h20.7v-3.4h-20.7V142.2 M133.6,149.1h20.7v-3.4
			h-20.7V149.1 M133.6,156h20.7v-3.4h-20.7V156 M133.6,162.9h20.7v-3.4h-20.7V162.9 M133.6,169.8h20.7v-3.4h-20.7V169.8 M145.7,67
			h-3.4c-2,0-3.8,0.7-5.2,1.9c-1.4-1.2-3.2-1.9-5.2-1.9h-3.4c-2,0-3.8,0.7-5.2,1.9c-1.4-1.2-3.2-1.9-5.2-1.9h-3.4
			c-2,0-3.8,0.7-5.2,1.9c-1.4-1.2-3.2-1.9-5.2-1.9h-3.4c-2,0-3.8,0.7-5.2,1.9c-1.4-1.2-3.2-1.9-5.2-1.9h-3.4c-4.1,0-7.6,3.2-8,7.2
			c-5.9,1.3-10.4,6.6-10.4,12.9v5.2c0,0.6,0.1,1.2,0.2,1.7c-0.1,0.6-0.2,1.1-0.2,1.7V156c0,7.3,5.9,13.2,13.2,13.2H115
			c2,2.5,4.3,4.7,7,6.6c0.7,0.5,1.5,0.9,2.3,1.2c0.6,0.6,1.3,1.2,2.1,1.6c5.4,2.9,11.5,4.4,17.6,4.4c6.1,0,12.2-1.5,17.6-4.4
			c0.8-0.4,1.5-1,2.1-1.6c0.8-0.3,1.6-0.6,2.3-1.1c16.6-12.1,20.3-35.4,8.3-52.1c-2.8-3.8-6.2-7-10.1-9.5V95.7
			c0-0.6-0.1-1.2-0.2-1.7c0.1-0.6,0.2-1.1,0.2-1.7V87c0-6.3-4.5-11.6-10.4-12.9C153.2,70.1,149.8,67,145.7,67L145.7,67z"/>
	</g>
	<g style="opacity:7.000000e-02;">
		<path style="fill:#F2C611;" d="M145.7,75v6.9h-3.4V75H145.7 M131.9,75v6.9h-3.4V75H131.9 M118.1,75v6.9h-3.4V75H118.1 M104.3,75
			v6.9h-3.4V75H104.3 M90.5,75v6.9h-3.4V75H90.5 M150.9,81.9c2.9,0,5.2,2.3,5.2,5.2v5.2H76.7V87c0-2.9,2.3-5.2,5.2-5.2h5.2v3.4h3.4
			v-3.4h10.3v3.4h3.4v-3.4h10.3v3.4h3.4v-3.4h10.3v3.4h3.4v-3.4h10.3v3.4h3.4v-3.4H150.9 M156,95.7v19.6c-3.8-1.5-7.9-2.3-12.1-2.3
			c-5.4,0-10.8,1.3-15.5,3.9c-15.9,8.6-21.9,28.4-13.3,44.4H81.9c-2.9,0-5.2-2.3-5.2-5.2V95.7H156 M143.9,116.4
			C143.9,116.4,144,116.4,143.9,116.4c9.4,0,18.3,4.5,23.8,12.1c9.5,13.1,6.6,31.4-6.5,40.9v-35.7c0-0.9-0.8-1.7-1.7-1.7h-5.2v-5.2
			c0-0.9-0.8-1.7-1.7-1.7h-6.9v-5.2h-3.4v5.2h-6.9c-0.9,0-1.7,0.8-1.7,1.7v5.2h-5.2c-0.9,0-1.7,0.8-1.7,1.7v35.7
			c-7.6-5.5-12.1-14.4-12.1-23.7C114.7,129.5,127.8,116.4,143.9,116.4 M150.9,128.4v3.4h-13.8v-3.4H150.9 M157.8,135.3v36.2
			c-4.3,2.3-9.1,3.5-13.8,3.5c-4.7,0-9.5-1.2-13.8-3.5v-36.2H157.8 M133.6,142.2h20.7v-3.4h-20.7V142.2 M133.6,149.1h20.7v-3.4
			h-20.7V149.1 M133.6,156h20.7v-3.4h-20.7V156 M133.6,162.9h20.7v-3.4h-20.7V162.9 M133.6,169.8h20.7v-3.4h-20.7V169.8 M145.7,65
			h-3.4c-1.9,0-3.7,0.5-5.2,1.4c-1.5-0.9-3.3-1.4-5.2-1.4h-3.4c-1.9,0-3.7,0.5-5.2,1.4c-1.5-0.9-3.3-1.4-5.2-1.4h-3.4
			c-1.9,0-3.7,0.5-5.2,1.4c-1.5-0.9-3.3-1.4-5.2-1.4h-3.4c-1.9,0-3.7,0.5-5.2,1.4c-1.5-0.9-3.3-1.4-5.2-1.4h-3.4
			c-4.7,0-8.6,3.2-9.7,7.6c-6.2,1.9-10.6,7.7-10.6,14.5v5.2c0,0.6,0.1,1.2,0.1,1.7c-0.1,0.6-0.1,1.1-0.1,1.7V156
			c0,8.4,6.8,15.2,15.2,15.2h32.2c2,2.3,4.2,4.4,6.7,6.2c0.7,0.5,1.5,1,2.4,1.3c0.7,0.6,1.4,1.2,2.2,1.6c5.7,3,12.1,4.6,18.5,4.6
			s12.8-1.6,18.5-4.6c0.8-0.5,1.6-1,2.3-1.7c0.8-0.3,1.6-0.7,2.3-1.3c17.5-12.7,21.4-37.3,8.7-54.8c-2.7-3.7-6-6.9-9.8-9.4V95.7
			c0-0.6-0.1-1.2-0.1-1.7c0.1-0.6,0.1-1.1,0.1-1.7V87c0-6.8-4.5-12.5-10.6-14.5C154.3,68.2,150.4,65,145.7,65L145.7,65z"/>
	</g>
	<g style="opacity:7.000000e-02;">
		<path style="fill:#F2C611;" d="M145.7,75v6.9h-3.4V75H145.7 M131.9,75v6.9h-3.4V75H131.9 M118.1,75v6.9h-3.4V75H118.1 M104.3,75
			v6.9h-3.4V75H104.3 M90.5,75v6.9h-3.4V75H90.5 M150.9,81.9c2.9,0,5.2,2.3,5.2,5.2v5.2H76.7V87c0-2.9,2.3-5.2,5.2-5.2h5.2v3.4h3.4
			v-3.4h10.3v3.4h3.4v-3.4h10.3v3.4h3.4v-3.4h10.3v3.4h3.4v-3.4h10.3v3.4h3.4v-3.4H150.9 M156,95.7v19.6c-3.8-1.5-7.9-2.3-12.1-2.3
			c-5.4,0-10.8,1.3-15.5,3.9c-15.9,8.6-21.9,28.4-13.3,44.4H81.9c-2.9,0-5.2-2.3-5.2-5.2V95.7H156 M143.9,116.4
			C143.9,116.4,144,116.4,143.9,116.4c9.4,0,18.3,4.5,23.8,12.1c9.5,13.1,6.6,31.4-6.5,40.9v-35.7c0-0.9-0.8-1.7-1.7-1.7h-5.2v-5.2
			c0-0.9-0.8-1.7-1.7-1.7h-6.9v-5.2h-3.4v5.2h-6.9c-0.9,0-1.7,0.8-1.7,1.7v5.2h-5.2c-0.9,0-1.7,0.8-1.7,1.7v35.7
			c-7.6-5.5-12.1-14.4-12.1-23.7C114.7,129.5,127.8,116.4,143.9,116.4 M150.9,128.4v3.4h-13.8v-3.4H150.9 M157.8,135.3v36.2
			c-4.3,2.3-9.1,3.5-13.8,3.5c-4.7,0-9.5-1.2-13.8-3.5v-36.2H157.8 M133.6,142.2h20.7v-3.4h-20.7V142.2 M133.6,149.1h20.7v-3.4
			h-20.7V149.1 M133.6,156h20.7v-3.4h-20.7V156 M133.6,162.9h20.7v-3.4h-20.7V162.9 M133.6,169.8h20.7v-3.4h-20.7V169.8 M145.7,63
			h-3.4c-1.9,0-3.6,0.4-5.2,1.2c-1.6-0.7-3.3-1.2-5.2-1.2h-3.4c-1.9,0-3.6,0.4-5.2,1.2c-1.6-0.7-3.3-1.2-5.2-1.2h-3.4
			c-1.9,0-3.6,0.4-5.2,1.2c-1.6-0.7-3.3-1.2-5.2-1.2h-3.4c-1.9,0-3.6,0.4-5.2,1.2c-1.6-0.7-3.3-1.2-5.2-1.2h-3.4
			c-5.2,0-9.7,3.4-11.3,8c-6.4,2.5-11,8.7-11,16v5.2c0,0.6,0,1.2,0.1,1.7c-0.1,0.6-0.1,1.1-0.1,1.7V156c0,9.5,7.7,17.2,17.2,17.2
			h31.3c1.9,2.2,4.1,4.1,6.5,5.9c0.8,0.6,1.6,1,2.5,1.4c0.7,0.6,1.5,1.2,2.4,1.7c6,3.2,12.7,4.9,19.5,4.9c6.8,0,13.5-1.7,19.5-4.9
			c0.9-0.5,1.7-1.1,2.4-1.7c0.8-0.4,1.7-0.8,2.4-1.4c18.4-13.4,22.5-39.2,9.2-57.6c-2.6-3.6-5.8-6.7-9.4-9.3V95.7
			c0-0.6,0-1.2-0.1-1.7c0.1-0.6,0.1-1.1,0.1-1.7V87c0-7.3-4.6-13.6-11-16C155.4,66.3,150.9,63,145.7,63L145.7,63z"/>
	</g>
</g>
</svg>
